<svg xmlns="http://www.w3.org/2000/svg" xmlns:xlink="http://www.w3.org/1999/xlink" version="1.1" id="Capa_1" x="0px" y="0px" viewBox="0 0 512 512" style="enable-background:new 0 0 512 512;" xml:space="preserve">
<g>
	<g>
		<path d="M496,0H16C7.168,0,0,7.168,0,16v64c0,8.832,7.168,16,16,16h16v304c0,8.832,7.168,16,16,16h192v64h-32v32h96v-32h-32v-64    h192c8.832,0,16-7.168,16-16V96h16c8.832,0,16-7.168,16-16V16C512,7.168,504.832,0,496,0z M448,384H64V96h384V384z M480,64H32V32    h448V64z"/>
	</g>
</g>
<g>
	<g>
		<rect x="240" y="224" width="32" height="96"/>
	</g>
</g>
<g>
	<g>
		<rect x="176" y="160" width="32" height="160"/>
	</g>
</g>
<g>
	<g>
		<rect x="112" y="256" width="32" height="64"/>
	</g>
</g>
<g>
	<g>
		<rect x="304" y="192" width="32" height="128"/>
	</g>
</g>
<g>
	<g>
		<rect x="368" y="256" width="32" height="64"/>
	</g>
</g>
<g>
</g>
<g>
</g>
<g>
</g>
<g>
</g>
<g>
</g>
<g>
</g>
<g>
</g>
<g>
</g>
<g>
</g>
<g>
</g>
<g>
</g>
<g>
</g>
<g>
</g>
<g>
</g>
<g>
</g>
</svg>
