<svg xmlns="http://www.w3.org/2000/svg" xmlns:xlink="http://www.w3.org/1999/xlink" version="1.1" id="Capa_1" x="0px" y="0px" viewBox="0 0 512 512" style="enable-background:new 0 0 512 512;" xml:space="preserve">
<g>
	<g>
		<path d="M256,0C114.848,0,0,114.848,0,256s114.848,256,256,256s256-114.848,256-256S397.152,0,256,0z M272,32.816    c49.728,3.536,94.944,23.28,130.464,54.096L272,217.376V32.816z M32,256c0-118.112,91.952-214.928,208-223.184v216.56    L86.912,402.464C52.8,363.152,32,312.016,32,256z M256,480c-56.016,0-107.152-20.8-146.464-54.912l157.776-157.776    l157.776-157.776C459.2,148.848,480,199.984,480,256C480,379.52,379.52,480,256,480z"/>
	</g>
</g>
<g>
</g>
<g>
</g>
<g>
</g>
<g>
</g>
<g>
</g>
<g>
</g>
<g>
</g>
<g>
</g>
<g>
</g>
<g>
</g>
<g>
</g>
<g>
</g>
<g>
</g>
<g>
</g>
<g>
</g>
</svg>
